<svg xmlns="http://www.w3.org/2000/svg" width="14" height="12" viewBox="0 0 14 12" fill="none">
  <path fill-rule="evenodd" clip-rule="evenodd" d="M6.51146 3.42617L6.53964 3.90195L6.06998 3.84369C4.36041 3.62037 2.86689 2.863 1.59881 1.59102L0.978856 0.959879L0.819171 1.42595C0.481015 2.4649 0.697059 3.56211 1.40155 4.30006C1.77728 4.70787 1.69274 4.76613 1.04461 4.52338C0.819171 4.4457 0.621914 4.38744 0.603127 4.41657C0.537375 4.48454 0.762812 5.36814 0.941283 5.71769C1.18551 6.20318 1.68335 6.67896 2.22815 6.96055L2.68842 7.18387L2.14361 7.19358C1.61759 7.19358 1.59881 7.20329 1.65517 7.4072C1.84303 8.03834 2.5851 8.70831 3.4117 8.99961L3.99408 9.20351L3.48684 9.51423C2.73539 9.96088 1.85242 10.2133 0.969463 10.2328C0.546768 10.2425 0.199219 10.2813 0.199219 10.3104C0.199219 10.4075 1.34519 10.9513 2.01211 11.1649C4.01287 11.796 6.38935 11.5242 8.17406 10.4464C9.44214 9.67929 10.7102 8.15485 11.302 6.67896C11.6214 5.89247 11.9407 4.45541 11.9407 3.76602C11.9407 3.31936 11.9689 3.2611 12.4949 2.72707C12.8049 2.41635 13.0961 2.07651 13.1525 1.97941C13.2464 1.79492 13.237 1.79492 12.7579 1.95999C11.9595 2.25128 11.8468 2.21245 12.2413 1.7755C12.5325 1.46479 12.8801 0.90162 12.8801 0.736553C12.8801 0.707424 12.7392 0.755973 12.5795 0.843361C12.4104 0.940459 12.0347 1.08611 11.7529 1.17349L11.2456 1.33856L10.7854 1.01814C10.5318 0.843361 10.1748 0.649165 9.98695 0.590906C9.5079 0.454968 8.77523 0.474388 8.34314 0.629745C7.16899 1.06669 6.42692 2.19303 6.51146 3.42617Z" fill="white"/>
</svg>