<svg xmlns="http://www.w3.org/2000/svg" width="29" height="20" viewBox="0 0 29 20" fill="none">
  <path fill-rule="evenodd" clip-rule="evenodd" d="M25.2389 0.597097C26.4362 0.925645 27.3791 1.89371 27.6991 3.12306C28.2806 5.35113 28.2806 10 28.2806 10C28.2806 10 28.2806 14.6487 27.6991 16.8769C27.3791 18.1063 26.4362 19.0744 25.2389 19.4031C23.0691 20 14.3676 20 14.3676 20C14.3676 20 5.66607 20 3.49611 19.4031C2.2988 19.0744 1.35587 18.1063 1.03587 16.8769C0.454529 14.6487 0.454529 10 0.454529 10C0.454529 10 0.454529 5.35113 1.03587 3.12306C1.35587 1.89371 2.2988 0.925645 3.49611 0.597097C5.66607 0 14.3676 0 14.3676 0C14.3676 0 23.0691 0 25.2389 0.597097ZM11.7589 6.08686V14.7825L18.7154 10.4349L11.7589 6.08686Z" fill="white"/>
</svg>