<svg xmlns="http://www.w3.org/2000/svg" width="14" height="14" viewBox="0 0 14 14" fill="none">
  <g clip-path="url(#clip0_0_700)">
    <path fill-rule="evenodd" clip-rule="evenodd" d="M6.69922 0.5C3.10797 0.5 0.199219 3.40875 0.199219 7C0.199219 9.87625 2.05984 12.3056 4.64359 13.1669C4.96859 13.2238 5.09047 13.0288 5.09047 12.8581C5.09047 12.7038 5.08234 12.1919 5.08234 11.6475C3.44922 11.9481 3.02672 11.2494 2.89672 10.8837C2.82359 10.6969 2.50672 10.12 2.23047 9.96563C2.00297 9.84375 1.67797 9.54313 2.22234 9.535C2.73422 9.52688 3.09984 10.0063 3.22172 10.2013C3.80672 11.1844 4.74109 10.9081 5.11484 10.7375C5.17172 10.315 5.34234 10.0306 5.52922 9.86812C4.08297 9.70563 2.57172 9.145 2.57172 6.65875C2.57172 5.95188 2.82359 5.36688 3.23797 4.91188C3.17297 4.74938 2.94547 4.08313 3.30297 3.18938C3.30297 3.18938 3.84734 3.01875 5.09047 3.85563C5.61047 3.70938 6.16297 3.63625 6.71547 3.63625C7.26797 3.63625 7.82047 3.70938 8.34047 3.85563C9.58359 3.01063 10.128 3.18938 10.128 3.18938C10.4855 4.08313 10.258 4.74938 10.193 4.91188C10.6073 5.36688 10.8592 5.94375 10.8592 6.65875C10.8592 9.15312 9.33984 9.70563 7.89359 9.86812C8.12922 10.0712 8.33234 10.4613 8.33234 11.0706C8.33234 11.94 8.32422 12.6388 8.32422 12.8581C8.32422 13.0288 8.44609 13.2319 8.77109 13.1669C10.0614 12.7312 11.1827 11.9019 11.977 10.7957C12.7714 9.6894 13.1988 8.36191 13.1992 7C13.1992 3.40875 10.2905 0.5 6.69922 0.5Z" fill="white"/>
  </g>
  <defs>
    <clipPath id="clip0_0_700">
      <rect width="13" height="13" fill="white" transform="translate(0.199219 0.5)"/>
    </clipPath>
  </defs>
</svg>