<svg xmlns="http://www.w3.org/2000/svg" width="13" height="14" viewBox="0 0 13 14" fill="none">
  <path fill-rule="evenodd" clip-rule="evenodd" d="M6.59982 0.599976C4.86167 0.599976 4.64353 0.607576 3.96086 0.638643C3.27952 0.669843 2.81445 0.777711 2.40751 0.935979C1.98657 1.09945 1.6295 1.31812 1.27376 1.67399C0.91776 2.02972 0.699091 2.38679 0.535089 2.8076C0.376421 3.21467 0.268419 3.67987 0.237752 4.36095C0.207219 5.04362 0.199219 5.26189 0.199219 7.00004C0.199219 8.73819 0.206952 8.95566 0.237886 9.63834C0.269219 10.3197 0.377087 10.7847 0.535222 11.1917C0.698824 11.6126 0.917493 11.9697 1.27336 12.3254C1.62897 12.6814 1.98604 12.9006 2.40671 13.0641C2.81391 13.2224 3.27912 13.3302 3.96032 13.3614C4.643 13.3925 4.861 13.4001 6.59902 13.4001C8.3373 13.4001 8.55477 13.3925 9.23745 13.3614C9.91879 13.3302 10.3844 13.2224 10.7916 13.0641C11.2124 12.9006 11.5689 12.6814 11.9245 12.3254C12.2805 11.9697 12.4992 11.6126 12.6632 11.1918C12.8205 10.7847 12.9286 10.3195 12.9606 9.63847C12.9912 8.9558 12.9992 8.73819 12.9992 7.00004C12.9992 5.26189 12.9912 5.04375 12.9606 4.36108C12.9286 3.67974 12.8205 3.21467 12.6632 2.80773C12.4992 2.38679 12.2805 2.02972 11.9245 1.67399C11.5685 1.31798 11.2125 1.09931 10.7912 0.935979C10.3832 0.777711 9.91785 0.669843 9.23651 0.638643C8.55384 0.607576 8.3365 0.599976 6.59782 0.599976H6.59982ZM6.02565 1.7533C6.19605 1.75304 6.38619 1.7533 6.59979 1.7533C8.30861 1.7533 8.51114 1.75944 9.18595 1.7901C9.80996 1.81864 10.1486 1.9229 10.3742 2.01051C10.6729 2.12651 10.8858 2.26517 11.1097 2.48918C11.3337 2.71318 11.4724 2.92652 11.5886 3.22518C11.6762 3.45052 11.7806 3.78919 11.809 4.4132C11.8397 5.08787 11.8464 5.29054 11.8464 6.99856C11.8464 8.70658 11.8397 8.90924 11.809 9.58392C11.7805 10.2079 11.6762 10.5466 11.5886 10.7719C11.4726 11.0706 11.3337 11.2833 11.1097 11.5071C10.8857 11.7311 10.673 11.8698 10.3742 11.9858C10.1489 12.0738 9.80996 12.1778 9.18595 12.2063C8.51128 12.237 8.30861 12.2437 6.59979 12.2437C4.89084 12.2437 4.6883 12.237 4.01363 12.2063C3.38962 12.1775 3.05095 12.0733 2.82522 11.9857C2.52655 11.8697 2.31321 11.731 2.08921 11.507C1.86521 11.283 1.72654 11.0702 1.61027 10.7714C1.52267 10.5461 1.41827 10.2074 1.38987 9.58339C1.3592 8.90871 1.35307 8.70604 1.35307 6.99696C1.35307 5.28787 1.3592 5.08627 1.38987 4.4116C1.4184 3.78759 1.52267 3.44892 1.61027 3.22332C1.72627 2.92465 1.86521 2.71131 2.08921 2.48731C2.31321 2.26331 2.52655 2.12464 2.82522 2.00837C3.05082 1.92037 3.38962 1.81637 4.01363 1.7877C4.60404 1.76104 4.83284 1.75304 6.02565 1.7517V1.7533ZM10.0161 2.81598C9.59209 2.81598 9.24809 3.15959 9.24809 3.58372C9.24809 4.00773 9.59209 4.35173 10.0161 4.35173C10.4401 4.35173 10.7841 4.00773 10.7841 3.58372C10.7841 3.15972 10.4401 2.81598 10.0161 2.81598ZM6.59983 3.71332C4.78474 3.71332 3.31313 5.18494 3.31313 7.00002C3.31313 8.81511 4.78474 10.2861 6.59983 10.2861C8.41492 10.2861 9.886 8.81511 9.886 7.00002C9.886 5.18494 8.41492 3.71332 6.59983 3.71332ZM6.5998 4.86667C7.77795 4.86667 8.73316 5.82175 8.73316 7.00002C8.73316 8.17817 7.77795 9.13338 6.5998 9.13338C5.42153 9.13338 4.46645 8.17817 4.46645 7.00002C4.46645 5.82175 5.42153 4.86667 6.5998 4.86667Z" fill="white"/>
</svg>