<svg xmlns="http://www.w3.org/2000/svg" width="14" height="14" viewBox="0 0 14 14" fill="none">
  <g clip-path="url(#clip0_0_709)">
    <path fill-rule="evenodd" clip-rule="evenodd" d="M0.741211 2.03733C0.741211 1.77329 0.846103 1.52006 1.03281 1.33335C1.21952 1.14664 1.47275 1.04175 1.73679 1.04175H11.6612C11.7921 1.04154 11.9217 1.06713 12.0426 1.11708C12.1636 1.16702 12.2735 1.24033 12.3661 1.33281C12.4586 1.42528 12.5321 1.53511 12.5821 1.656C12.6322 1.7769 12.658 1.90648 12.6579 2.03733V11.9617C12.658 12.0926 12.6324 12.2223 12.5824 12.3432C12.5324 12.4642 12.459 12.5741 12.3665 12.6666C12.274 12.7592 12.1641 12.8326 12.0432 12.8827C11.9222 12.9328 11.7926 12.9585 11.6618 12.9584H1.73679C1.60601 12.9584 1.4765 12.9326 1.35568 12.8826C1.23485 12.8325 1.12507 12.7591 1.03262 12.6666C0.940164 12.5741 0.866841 12.4643 0.81684 12.3435C0.766839 12.2226 0.74114 12.0931 0.741211 11.9623V2.03733ZM5.45805 5.58525H7.07167V6.39558C7.30459 5.92975 7.90042 5.5105 8.7958 5.5105C10.5123 5.5105 10.9191 6.43837 10.9191 8.14083V11.2944H9.182V8.52867C9.182 7.55908 8.94909 7.012 8.35759 7.012C7.53696 7.012 7.19571 7.60187 7.19571 8.52867V11.2944H5.45805V5.58525ZM2.47888 11.2202H4.21654V5.5105H2.47888V11.2197V11.2202ZM4.46517 3.64825C4.46845 3.79703 4.44197 3.94497 4.3873 4.08338C4.33263 4.22179 4.25086 4.34789 4.1468 4.45427C4.04273 4.56065 3.91846 4.64517 3.78129 4.70288C3.64412 4.76058 3.4968 4.79031 3.34798 4.79031C3.19917 4.79031 3.05185 4.76058 2.91467 4.70288C2.7775 4.64517 2.65323 4.56065 2.54917 4.45427C2.4451 4.34789 2.36334 4.22179 2.30866 4.08338C2.25399 3.94497 2.22752 3.79703 2.23079 3.64825C2.23723 3.35621 2.35775 3.0783 2.56657 2.87404C2.77538 2.66977 3.05587 2.55539 3.34798 2.55539C3.64009 2.55539 3.92059 2.66977 4.1294 2.87404C4.33821 3.0783 4.45874 3.35621 4.46517 3.64825Z" fill="white"/>
  </g>
  <defs>
    <clipPath id="clip0_0_709">
      <rect width="13" height="13" fill="white" transform="translate(0.199219 0.5)"/>
    </clipPath>
  </defs>
</svg>